<svg width="47" height="20" viewBox="0 0 47 20" fill="none" xmlns="http://www.w3.org/2000/svg">
<path d="M9.176 19.288C7.912 19.288 6.736 19.056 5.648 18.592C4.576 18.128 3.64 17.488 2.84 16.672C2.056 15.84 1.44 14.864 0.992 13.744C0.544 12.624 0.32 11.392 0.32 10.048C0.32 8.72 0.536 7.496 0.968 6.376C1.416 5.24 2.04 4.264 2.84 3.448C3.64 2.616 4.576 1.976 5.648 1.528C6.72 1.064 7.896 0.831999 9.176 0.831999C10.44 0.831999 11.568 1.048 12.56 1.48C13.568 1.912 14.416 2.48 15.104 3.184C15.792 3.872 16.288 4.624 16.592 5.44L14.048 6.64C13.664 5.68 13.048 4.904 12.2 4.312C11.368 3.704 10.36 3.4 9.176 3.4C7.992 3.4 6.944 3.68 6.032 4.24C5.12 4.8 4.408 5.576 3.896 6.568C3.4 7.56 3.152 8.72 3.152 10.048C3.152 11.376 3.4 12.544 3.896 13.552C4.408 14.544 5.12 15.32 6.032 15.88C6.944 16.424 7.992 16.696 9.176 16.696C10.36 16.696 11.368 16.4 12.2 15.808C13.048 15.216 13.664 14.44 14.048 13.48L16.592 14.68C16.288 15.48 15.792 16.232 15.104 16.936C14.416 17.64 13.568 18.208 12.56 18.64C11.568 19.072 10.44 19.288 9.176 19.288ZM24.2563 19L17.9203 1.12H20.9683L26.1523 16.384H25.5523L30.7123 1.12H33.7603L27.4243 19H24.2563ZM35.8636 19V1.12H38.6956V16.48H46.4236V19H35.8636Z" fill="#0A77FF"/>
</svg>
